<svg xmlns="http://www.w3.org/2000/svg" viewBox="0 0 128 128" role="img" aria-label="Calories">
  <defs>
    <radialGradient id="glow" cx="50%" cy="78%" r="62%">
      <stop offset="0%" stop-color="#fff7a8" stop-opacity=".95"/>
      <stop offset="32%" stop-color="#ffb300" stop-opacity=".78"/>
      <stop offset="64%" stop-color="#ff6a00" stop-opacity=".36"/>
      <stop offset="100%" stop-color="#ff6a00" stop-opacity="0"/>
    </radialGradient>

    <linearGradient id="flameOuter" x1="35" y1="118" x2="88" y2="8" gradientUnits="userSpaceOnUse">
      <stop offset="0%" stop-color="#fff06a"/>
      <stop offset="26%" stop-color="#ffb000"/>
      <stop offset="62%" stop-color="#ff6a00"/>
      <stop offset="100%" stop-color="#ffcf38"/>
    </linearGradient>

    <linearGradient id="flameInner" x1="50" y1="112" x2="75" y2="45" gradientUnits="userSpaceOnUse">
      <stop offset="0%" stop-color="#ffffff"/>
      <stop offset="36%" stop-color="#fff469"/>
      <stop offset="70%" stop-color="#ffbf1a"/>
      <stop offset="100%" stop-color="#ff7a00"/>
    </linearGradient>

    <filter id="softGlow" x="-45%" y="-45%" width="190%" height="190%">
      <feGaussianBlur stdDeviation="3.2" result="blur"/>
      <feColorMatrix in="blur" type="matrix"
        values="1 0 0 0 1
                0 0.52 0 0 0.42
                0 0 0.08 0 0
                0 0 0 0.75 0" result="orangeGlow"/>
      <feMerge>
        <feMergeNode in="orangeGlow"/>
        <feMergeNode in="SourceGraphic"/>
      </feMerge>
    </filter>

    <filter id="tinyGlow" x="-60%" y="-60%" width="220%" height="220%">
      <feGaussianBlur stdDeviation="1.4" result="blur"/>
      <feMerge>
        <feMergeNode in="blur"/>
        <feMergeNode in="SourceGraphic"/>
      </feMerge>
    </filter>
  </defs>

  <circle cx="64" cy="77" r="50" fill="url(#glow)" opacity=".85"/>

  <path filter="url(#softGlow)"
        d="M66.4 116.5c-20.8 0-37.6-13.9-37.6-34.8 0-13.9 7.1-24 16.6-34.1 8.1-8.6 12.4-18.1 10.7-31.4 13.2 7.7 22.2 18.1 23.3 33.6 5.8-6.4 6.9-15.2 3-25.1 15.9 12.6 26.8 29 26.8 49.5 0 25.6-18.7 42.3-42.8 42.3Z"
        fill="url(#flameOuter)"/>

  <path d="M65.3 113.5c-13.6 0-24.7-8.6-24.7-22.1 0-9.7 5.3-16.9 12.1-23.9 5.3-5.5 8.7-12.8 7.7-22.1 9.3 7.2 14 15.6 13.4 27.1 4.8-3.6 7.5-9 7.6-16.8 9.4 8.7 15.1 19.4 15.1 32.1 0 16.5-13.4 25.7-31.2 25.7Z"
        fill="url(#flameInner)" opacity=".98"/>

  <path d="M51.7 103.8c-8-12.1 2.8-23.5 12.3-33.5-.7 10.7 8.2 18.2 5.9 31.7 5-3.6 8.2-8.3 9.5-14.2 4.3 11.7-2.7 24.7-16.5 25.5-4.4.2-8.3-1.1-11.2-9.5Z"
        fill="#fff7a8" opacity=".72"/>

  <path d="M33.5 77.5c-2.6 6.1-2.4 12.7.8 19.8" fill="none" stroke="#fff27a" stroke-width="2.4" stroke-linecap="round" opacity=".38"/>
  <path d="M97.3 58.7c5.5 9.6 7.1 18.7 4.8 27.4" fill="none" stroke="#ffd15c" stroke-width="2.2" stroke-linecap="round" opacity=".32"/>

  <g filter="url(#tinyGlow)" opacity=".9">
    <path d="M20 64l3.5 1.4L25 69l1.5-3.6L30 64l-3.5-1.4L25 59l-1.5 3.6L20 64Z" fill="#ffd15c"/>
    <path d="M100 42l2.8 1.1L104 46l1.2-2.9L108 42l-2.8-1.1L104 38l-1.2 2.9L100 42Z" fill="#ffb000"/>
    <path d="M106 94l2.6 1L110 98l1.4-3 2.6-1-2.6-1-1.4-3-1.4 3-2.6 1Z" fill="#ffdf6b"/>
  </g>
</svg>